<svg xmlns="http://www.w3.org/2000/svg" xmlns:xlink="http://www.w3.org/1999/xlink" width="26.288" height="25.794" viewBox="0 0 26.288 25.794">
  <defs>
    <clipPath id="clip-path">
      <rect id="Rectangle_1278" data-name="Rectangle 1278" width="26.288" height="25.794" fill="#264f36"/>
    </clipPath>
  </defs>
  <g id="Feed_Creation" data-name="Feed Creation" transform="translate(0 0)">
    <g id="Group_1268" data-name="Group 1268" transform="translate(0 0)" clip-path="url(#clip-path)">
      <path id="Path_5943" data-name="Path 5943" d="M25.017,20.025h0Z" transform="translate(1.266 1.014)" fill="#264f36"/>
      <path id="Path_5944" data-name="Path 5944" d="M21.8,24.735a5.411,5.411,0,0,0,3.951-4.567.929.929,0,0,1,.044-.193l-.028-2.208a.969.969,0,0,0-1.906.281l0,.495c0,.314.006.628-.009.941a4.383,4.383,0,0,1-.17,1.082A3.455,3.455,0,0,1,20.256,23q-3.866.006-7.73,0L9.658,23c-1.45,0-2.9.005-4.351-.012a3.419,3.419,0,0,1-3.3-2.883,10.476,10.476,0,0,1-.066-1.465c0-.211,0-.422,0-.632a.983.983,0,0,0-.967-.977h0A.97.97,0,0,0,0,18.019C0,18.547,0,19.078.005,19.607a5.374,5.374,0,0,0,3.423,4.931,7.634,7.634,0,0,0,1.039.284c.16.036.318.071.476.11H20.87l.272-.053c.221-.043.441-.085.659-.144" transform="translate(0 0.862)" fill="#264f36"/>
      <path id="Path_5945" data-name="Path 5945" d="M13.575,14.886V1.258c0-.133,0-.246-.007-.358a.957.957,0,0,0-.863-.9.942.942,0,0,0-1.012.69,1.984,1.984,0,0,0-.043.485l0,15.3L9.472,14.354Q8.417,13.3,7.361,12.248a1.031,1.031,0,0,0-.726-.315l-.067,0a.957.957,0,0,0-.694.385.984.984,0,0,0,.177,1.346l5.764,5.764a.988.988,0,0,0,1.6,0l3.26-3.259q1.251-1.253,2.5-2.5a.976.976,0,0,0,.333-.981.873.873,0,0,0-.673-.708.9.9,0,0,0-.959.257q-1.579,1.57-3.148,3.15l-1.12,1.182" transform="translate(0.288 0)" fill="#264f36"/>
    </g>
  </g>
</svg>
