<svg xmlns="http://www.w3.org/2000/svg" xmlns:xlink="http://www.w3.org/1999/xlink" width="37.676" height="36.538" viewBox="0 0 37.676 36.538">
  <defs>
    <clipPath id="clip-path">
      <rect id="Rectangle_1262" data-name="Rectangle 1262" width="37.676" height="36.538" fill="#264f36"/>
    </clipPath>
  </defs>
  <g id="Group_1241" data-name="Group 1241" transform="translate(0 0)">
    <g id="Group_1240" data-name="Group 1240" transform="translate(0 0)" clip-path="url(#clip-path)">
      <path id="Path_5935" data-name="Path 5935" d="M5.652,12.453c-.012-.012-.028-.015-.041-.026a.841.841,0,0,0-1.155,0c-.012.01-.029.014-.041.026L.256,16.613A.874.874,0,0,0,1.492,17.85L4.16,15.181v8.062a.874.874,0,0,0,1.748,0V15.181L8.577,17.85a.874.874,0,0,0,1.235-1.236Z" transform="translate(0 2.017)" fill="#264f36"/>
      <path id="Path_5936" data-name="Path 5936" d="M18.692,21.382a.874.874,0,0,0-1.236,0L13.3,25.542a.874.874,0,0,0,1.235,1.236L17.2,24.11v8.062a.874.874,0,1,0,1.748,0V24.11l2.667,2.669a.874.874,0,0,0,1.236-1.236Z" transform="translate(2.156 3.492)" fill="#264f36"/>
      <path id="Path_5937" data-name="Path 5937" d="M33.5,17.86,29.344,13.7a.789.789,0,0,0-.113-.075.823.823,0,0,0-.169-.113.873.873,0,0,0-.672,0,.864.864,0,0,0-.17.113.849.849,0,0,0-.112.075l-4.16,4.159A.874.874,0,0,0,25.184,19.1l2.667-2.669v8.06a.874.874,0,0,0,1.748,0v-8.06L32.268,19.1A.874.874,0,0,0,33.5,17.86" transform="translate(3.916 2.223)" fill="#264f36"/>
      <path id="Path_5938" data-name="Path 5938" d="M24.469,6.98a.874.874,0,0,0-.429,1.7l3.138.795a.916.916,0,0,0,.216.026.874.874,0,0,0,.213-1.721Z" transform="translate(3.865 1.15)" fill="#264f36"/>
      <path id="Path_5939" data-name="Path 5939" d="M24.121,6.274a.874.874,0,0,0,.446-.122l2.782-1.657a.874.874,0,1,0-.895-1.5l-2.78,1.656a.874.874,0,0,0,.447,1.626" transform="translate(3.843 0.475)" fill="#264f36"/>
      <path id="Path_5940" data-name="Path 5940" d="M21.585,4.857a.875.875,0,0,0,1.063-.632l.8-3.137A.874.874,0,1,0,21.752.657l-.8,3.138a.874.874,0,0,0,.632,1.062" transform="translate(3.459 0)" fill="#264f36"/>
      <path id="Path_5941" data-name="Path 5941" d="M19.7,1.007c-.041.092-.071.157-.1.224-.246.569-.454,1.157-.745,1.7a13.5,13.5,0,0,1-4.626,5.046C13.16,8.672,12.047,9.3,10.954,9.95a2.429,2.429,0,0,0-.869,3.418q.787,1.332,1.578,2.66a2.425,2.425,0,0,0,3.412.89c.216-.124.429-.252.653-.385.968,1.627,1.929,3.238,2.892,4.858l.009-.006a.806.806,0,0,0,1.528-.366A.787.787,0,0,0,20,20.565l.01-.007c-.965-1.619-1.922-3.228-2.89-4.853a13.878,13.878,0,0,1,10.016-2.153L19.7,1.007M14.085,15.6a.754.754,0,0,1-.96-.294q-.863-1.425-1.7-2.867a.762.762,0,0,1,.211-1c.244-.177.512-.318.785-.485.83,1.4,1.65,2.783,2.481,4.185-.279.158-.538.33-.817.458m2.213-1.28c-.83-1.4-1.65-2.782-2.487-4.194a16.005,16.005,0,0,0,6.05-5.67l4.313,7.273A15.991,15.991,0,0,0,16.3,14.322" transform="translate(1.605 0.167)" fill="#264f36"/>
    </g>
  </g>
</svg>
