<svg xmlns="http://www.w3.org/2000/svg" width="32.476" height="28.679" viewBox="0 0 32.476 28.679">
  <path id="Scenario_Comparison" data-name="Scenario Comparison" d="M22.138,35.479a3.8,3.8,0,1,1,3.8-3.8A3.8,3.8,0,0,1,22.138,35.479Zm0-1.9a1.9,1.9,0,1,0-1.9-1.9A1.9,1.9,0,0,0,22.138,33.58Zm-5.825.471a.949.949,0,0,1-.82,1.427H8.848a.949.949,0,0,1-.82-1.427l3.323-5.7a.949.949,0,0,1,1.64,0Zm-4.143-3.334L10.5,33.58H13.84Zm17.088-2.359h5.221a.949.949,0,0,1,.949.949v5.221a.949.949,0,0,1-.949.949H29.258a.949.949,0,0,1-.949-.949V29.309a.949.949,0,0,1,.949-.949Zm.949,1.9V33.58H33.53V30.258Zm-4.747-6.17h2.848V14.594a.949.949,0,0,1,.949-.949H34a.949.949,0,0,1,.949.949v9.493h2.373a.949.949,0,0,1,0,1.9H6.949a.949.949,0,0,1,0-1.9H9.322V19.341a.949.949,0,0,1,.949-.949h4.746a.949.949,0,0,1,.949.949v4.747h2.848V7.949A.949.949,0,0,1,19.765,7h4.747a.949.949,0,0,1,.949.949Zm-4.747,0h2.848V8.9H20.714Zm-9.493,0h2.848v-3.8H11.221Zm18.986,0h2.848V15.544H30.208Z" transform="translate(-5.9 -6.9)" fill="#264f36" stroke="#fff" stroke-width="0.2"/>
</svg>
