<svg xmlns="http://www.w3.org/2000/svg" xmlns:xlink="http://www.w3.org/1999/xlink" width="35.98" height="35.566" viewBox="0 0 35.98 35.566">
  <defs>
    <clipPath id="clip-path">
      <rect id="Rectangle_1295" data-name="Rectangle 1295" width="35.98" height="35.566" fill="#264f36"/>
    </clipPath>
  </defs>
  <g id="Group_1305" data-name="Group 1305" transform="translate(0 0)">
    <g id="Group_1304" data-name="Group 1304" transform="translate(0 0)" clip-path="url(#clip-path)">
      <path id="Path_5954" data-name="Path 5954" d="M18.69,12.685a.873.873,0,0,0-1.232,0L6.679,23.465a.872.872,0,0,0,0,1.232.892.892,0,0,0,1.233,0L18.69,13.917a.872.872,0,0,0,0-1.232" transform="translate(1.427 2.763)" fill="#264f36"/>
      <path id="Path_5955" data-name="Path 5955" d="M8.9,17.874a2.968,2.968,0,1,0-2.968-2.969A2.972,2.972,0,0,0,8.9,17.874m0-4.192a1.225,1.225,0,1,1-1.225,1.223A1.225,1.225,0,0,1,8.9,13.682" transform="translate(1.318 2.653)" fill="#264f36"/>
      <path id="Path_5956" data-name="Path 5956" d="M15.271,18.31a2.968,2.968,0,1,0,2.969,2.966,2.971,2.971,0,0,0-2.969-2.966m0,4.192A1.225,1.225,0,1,1,16.5,21.276,1.226,1.226,0,0,1,15.271,22.5" transform="translate(2.734 4.069)" fill="#264f36"/>
      <path id="Path_5957" data-name="Path 5957" d="M28.272,0a7.74,7.74,0,0,0-7.68,7.114l-.017.226H5.944A5.95,5.95,0,0,0,0,13.285V29.62a5.95,5.95,0,0,0,5.944,5.945H22.28a5.951,5.951,0,0,0,5.944-5.945v-14.2l.238-.006A7.706,7.706,0,0,0,28.272,0M26.513,29.62a4.239,4.239,0,0,1-4.234,4.234H5.944A4.239,4.239,0,0,1,1.71,29.62V13.285A4.239,4.239,0,0,1,5.944,9.052H20.676l.039.2a7.757,7.757,0,0,0,5.615,5.915l.183.048Zm1.963-15.931a.361.361,0,0,0-.064.007.9.9,0,0,1-.141.013,6.036,6.036,0,0,1-5.724-4.292,5.847,5.847,0,0,1-.276-1.706,3.04,3.04,0,0,1,.038-.425c.007-.062.016-.123.022-.186a5.985,5.985,0,1,1,6.144,6.589" transform="translate(0 0)" fill="#264f36"/>
      <path id="Path_5958" data-name="Path 5958" d="M26.471,6.632H23.819V3.98a.856.856,0,0,0-1.712,0V8.343h4.364a.856.856,0,1,0,0-1.711" transform="translate(4.912 0.695)" fill="#264f36"/>
    </g>
  </g>
</svg>
