<svg xmlns="http://www.w3.org/2000/svg" xmlns:xlink="http://www.w3.org/1999/xlink" width="126" height="56"
  viewBox="0 0 126 56">
  <defs fill="#000000fff">
    <clipPath id="clip-path" fill="#000000fff">
      <rect id="Rectangle_2571" data-name="Rectangle 2571" width="126" height="56"
        transform="translate(-19987.857 -13489.261)" fill="#000000" stroke="#5b5b5b" stroke-width="1" />
    </clipPath>
  </defs>
  <g id="Logo" transform="translate(19987.857 13489.261)" clip-path="url(#clip-path)">
    <g id="Group_3532" data-name="Group 3532" transform="translate(-19984.443 -13481.403)">
      <path id="Path_652" data-name="Path 652"
        d="M172.583,155.318V140.846c0-.585.013-1.171,0-1.756-.013-.226.04-.293.293-.293,3.126.013,6.252,0,9.377.013,1.37,0,2.727-.053,4.1.04a6.755,6.755,0,0,1,4.243,1.875,8.6,8.6,0,0,1,2.767,7.289,8.819,8.819,0,0,1-2.008,5.055c-.053.067-.133.12-.12.213-.7.146-1.41.306-2.115.452-.851.173-1.7.346-2.567.479-.8.12-1.583.279-2.381.386-.825.106-1.663.2-2.487.306-.931.106-1.862.16-2.78.266-.532.053-1.064.053-1.609.066a3.887,3.887,0,0,0-.878.04c-.146,0-.293.013-.426.013a19.185,19.185,0,0,0-1.955.04C173.54,155.318,173.061,155.318,172.583,155.318Zm7.688-7.941c0,.625.013,1.25,0,1.875,0,.2.053.253.253.253,1.064-.013,2.128-.013,3.179,0a1.907,1.907,0,0,0,1.49-.639,2.118,2.118,0,0,0,.372-2.328,1.876,1.876,0,0,0-1.756-1.264c-1.1-.027-2.221,0-3.325-.013-.173,0-.2.053-.2.213C180.271,146.113,180.271,146.738,180.271,147.377Z"
        transform="translate(-80.232 -138.491)" fill="#ffffff" fill-rule="evenodd" />
      <path id="Path_653" data-name="Path 653"
        d="M144.545,152.259V139.077c0-.226.053-.279.279-.279q8.081.02,16.174,0c.239,0,.279.08.279.293-.013,1.955-.013,3.924,0,5.879,0,.213-.053.266-.266.266-2.82-.013-5.653,0-8.473-.013-.253,0-.319.067-.306.306.027.505.013,1.011,0,1.5-.013.226.053.279.279.279,2.82-.013,5.626,0,8.446-.013.266,0,.319.067.319.319-.013,1.955-.013,3.9,0,5.853,0,.239-.053.293-.293.293-2.793-.013-5.587,0-8.393-.013-.306,0-.412.08-.359.372-.665-.146-1.33-.266-2-.426-1.051-.253-2.1-.505-3.139-.771C146.247,152.711,145.4,152.485,144.545,152.259Z"
        transform="translate(-72.172 -138.492)" fill="#ffffff" fill-rule="evenodd" />
      <path id="Path_654" data-name="Path 654"
        d="M129.615,158.783a10.256,10.256,0,0,1-1.649,3.046,11.374,11.374,0,0,1-5.8,4.216,11.71,11.71,0,0,1-12.051-2.727,11.387,11.387,0,0,1-3.578-6.8,12.021,12.021,0,0,1-.067-3.166,1.28,1.28,0,0,1,.226,0c1.676.386,3.339.758,5.015,1.144.8.186,1.583.372,2.368.559a4.062,4.062,0,0,0,2.527,3.5,4.176,4.176,0,0,0,4.389-.492,2.894,2.894,0,0,0,.718-.732h-4.2c-.226,0-.293-.067-.279-.279.013-.4,0-.8,0-1.2h.146c.865.213,1.743.412,2.607.625,2.354.572,4.7,1.157,7.05,1.729C127.9,158.437,128.763,158.61,129.615,158.783Z"
        transform="translate(-61.206 -142.675)" fill="#ffffff" fill-rule="evenodd" />
      <path id="Path_655" data-name="Path 655"
        d="M71.053,145.661a2.059,2.059,0,0,1-.851.106c-.572.04-1.157.093-1.729.146-.745.067-1.5.16-2.248.266-.7.093-1.4.2-2.1.293a2.782,2.782,0,0,1-.732.106c0-.346-.027-.7,0-1.051.027-.266-.08-.306-.319-.306-2,.013-3.977,0-5.972.013-.239,0-.293-.066-.293-.293.013-1.955.013-3.9,0-5.853,0-.213.04-.293.266-.293q10.136.02,20.271,0c.213,0,.266.053.266.266q-.02,2.953,0,5.906c0,.226-.066.266-.266.253-1.955-.013-3.9,0-5.853,0C71.053,145.223,71.053,145.223,71.053,145.661Z"
        transform="translate(-46.951 -138.492)" fill="#ffffff" fill-rule="evenodd" />
      <path id="Path_656" data-name="Path 656"
        d="M115.026,147.946c-.931-.12-1.849-.306-2.767-.479-.732-.133-1.463-.226-2.181-.346-.692-.106-1.37-.226-2.062-.333a4.267,4.267,0,0,1-.825-.133,11.245,11.245,0,0,1,2.514-4.323,11.51,11.51,0,0,1,6.691-3.764,12.817,12.817,0,0,1,2.141-.186c2.461-.013,4.908,0,7.369-.013.226,0,.306.04.306.293-.013,2.381-.013,4.749,0,7.129,0,.253-.08.279-.306.279-2.381-.013-4.762,0-7.13-.013a4.361,4.361,0,0,0-3.445,1.49C115.225,147.693,115.132,147.826,115.026,147.946Z"
        transform="translate(-61.435 -138.369)" fill="#ffffff" fill-rule="evenodd" />
      <path id="Path_657" data-name="Path 657"
        d="M90.534,150.353c1.224.146,2.434.359,3.645.559,1.49.266,2.979.545,4.456.865v13.474c0,.213-.053.266-.266.266-2.527-.013-5.055-.013-7.6,0-.186,0-.253-.027-.253-.239V150.446A.26.26,0,0,0,90.534,150.353Z"
        transform="translate(-56.643 -141.814)" fill="#ffffff" fill-rule="evenodd" />
      <path id="Path_658" data-name="Path 658"
        d="M66.048,150.3c.718-.067,1.437-.186,2.155-.279.6-.08,1.21-.106,1.809-.186.865-.12,1.729-.133,2.58-.226a3.431,3.431,0,0,0,.825-.04h.306q0,7.7.013,15.4c0,.266-.08.319-.319.319-2.354-.013-4.7-.013-7.05,0-.266,0-.306-.08-.306-.319C66.048,160.077,66.048,155.2,66.048,150.3Z"
        transform="translate(-49.608 -141.588)" fill="#ffffff" fill-rule="evenodd" />
      <path id="Path_659" data-name="Path 659"
        d="M172.577,162.448c.532-.027,1.051-.04,1.583-.08.825-.067,1.636-.146,2.461-.213.638-.053,1.277-.106,1.929-.186s1.29-.146,1.942-.239c.7-.093,1.423-.213,2.128-.319.918-.146,1.836-.293,2.74-.466,1.051-.2,2.088-.439,3.126-.665.732-.16,1.463-.346,2.181-.519a4.23,4.23,0,0,1-1.3.971c-.213.12-.239.2-.12.412,1.357,2.261,2.687,4.536,4.03,6.8a.447.447,0,0,1,.106.226.505.505,0,0,1-.279.027h-8.752a.448.448,0,0,1-.452-.253c-1.144-1.969-2.3-3.937-3.445-5.893a.44.44,0,0,0-.186-.239v6.119c0,.2-.04.266-.266.266-2.394-.013-4.788-.013-7.2,0-.2,0-.253-.053-.239-.253C172.577,166.12,172.577,164.284,172.577,162.448Z"
        transform="translate(-80.226 -144.518)" fill="#ffffff" fill-rule="evenodd" />
      <path id="Path_660" data-name="Path 660"
        d="M157.846,163.186c.333,0,.652.013.984.013a8.4,8.4,0,0,0,1.53.04c.133,0,.279.053.4-.04h.505v5.374c0,.226-.067.279-.279.279H144.811c-.173,0-.266,0-.266-.226.013-2.208.013-4.416.013-6.624l1.875.279c.665.093,1.33.2,1.982.279.6.066,1.21.12,1.809.173.732.08,1.463.16,2.195.226.306.027.612.027.931.053.559.053,1.131.053,1.689.08a4.332,4.332,0,0,0,.931.04c.133,0,.253.013.386.013A9.286,9.286,0,0,0,157.846,163.186Z"
        transform="translate(-72.172 -145.162)" fill="#ffffff" fill-rule="evenodd" />
      <path id="Path_661" data-name="Path 661"
        d="M98.55,146.3c-.9-.08-1.8-.133-2.7-.239-.652-.067-1.3-.12-1.955-.173s-1.3-.133-1.955-.16c-.479-.013-.958-.053-1.437-.08V139.09c0-.226.04-.306.293-.293,2.514.013,5.028.013,7.529,0,.239,0,.293.053.293.293-.013,2.314,0,4.642-.013,6.957a1.631,1.631,0,0,1-.027.253Z"
        transform="translate(-56.637 -138.491)" fill="#ffffff" fill-rule="evenodd" />
      <path id="Path_662" data-name="Path 662"
        d="M83.066,189.4v-7.348c0-.361.107-.548.374-.628a.557.557,0,0,1,.762.6v8.818c0,.294-.027.561-.347.681a.629.629,0,0,1-.721-.267c-2.031-2.231-4.048-4.462-6.079-6.693-.321-.361-.655-.708-.989-1.082-.094.107-.053.227-.053.334V190.9c0,.494-.24.721-.668.655a.474.474,0,0,1-.441-.441,2.47,2.47,0,0,1-.013-.307v-8.844a.54.54,0,0,1,.334-.548.559.559,0,0,1,.641.174c.695.762,1.389,1.536,2.1,2.3q2.445,2.685,4.89,5.384c.053.067.107.12.16.187A.1.1,0,0,1,83.066,189.4Z"
        transform="translate(-52.149 -150.73)" fill="#ffffff" fill-rule="evenodd" />
      <path id="Path_663" data-name="Path 663"
        d="M192.97,191.565h-3.26a.522.522,0,0,1-.588-.6.5.5,0,0,1,.494-.521,1.6,1.6,0,0,1,.254,0h6a1.547,1.547,0,0,0,.775-.147,1.1,1.1,0,0,0,.668-1.042c-.013-.321,0-.641,0-.975A1.149,1.149,0,0,0,196.3,187.1a2.023,2.023,0,0,0-.4-.027h-4.168a2.613,2.613,0,0,1-2.2-.989,1.907,1.907,0,0,1-.4-1.189c0-.387.013-.775,0-1.176a2.242,2.242,0,0,1,2.111-2.271c1.6-.053,3.22-.027,4.823-.013a.492.492,0,0,1,.494.521.513.513,0,0,1-.441.574,2.809,2.809,0,0,1-.334.027h-4.168a1.457,1.457,0,0,0-.962.307,1.038,1.038,0,0,0-.414.842v1.029a1.153,1.153,0,0,0,.975,1.162,3.619,3.619,0,0,0,.534.053h4.342a2.3,2.3,0,0,1,2.271,1.7,5.9,5.9,0,0,1,0,2.218,2.3,2.3,0,0,1-2.124,1.7c-1.069.013-2.164-.013-3.26,0Z"
        transform="translate(-84.986 -150.744)" fill="#ffffff" fill-rule="evenodd" />
      <path id="Path_664" data-name="Path 664"
        d="M134.7,155.08c-.6-.08-1.176-.267-1.764-.4-1.042-.227-2.084-.494-3.14-.735-1.256-.294-2.525-.588-3.781-.855-1.216-.267-2.445-.481-3.674-.748a2.058,2.058,0,0,1-.748-.187,2.592,2.592,0,0,1-.04-.641c-.013-.107.053-.134.147-.12h12.719c.254,0,.321.053.321.307C134.713,152.822,134.767,153.957,134.7,155.08Z"
        transform="translate(-65.563 -142.111)" fill="#ffffff" fill-rule="evenodd" />
      <path id="Path_665" data-name="Path 665"
        d="M61.23,188.307c-.655,0-1.309.013-1.964,0a.362.362,0,0,0-.387.24c-.387.882-.788,1.75-1.176,2.619a.606.606,0,0,1-.441.4.554.554,0,0,1-.561-.187.589.589,0,0,1-.04-.641c.441-.962.868-1.924,1.309-2.872.9-1.964,1.777-3.928,2.672-5.879.04-.08.067-.16.107-.227a.56.56,0,0,1,.494-.334.523.523,0,0,1,.508.347l.641,1.4c1.136,2.485,2.258,4.97,3.393,7.455.2.454.147.762-.174.909-.361.174-.641.027-.855-.441-.387-.855-.788-1.71-1.162-2.565a.283.283,0,0,0-.321-.2C62.579,188.307,61.9,188.307,61.23,188.307Zm0-4.943c-.588,1.309-1.149,2.538-1.723,3.781H62.94C62.379,185.889,61.818,184.66,61.23,183.364Z"
        transform="translate(-46.887 -150.746)" fill="#ffffff" fill-rule="evenodd" />
      <path id="Path_666" data-name="Path 666"
        d="M97.825,188.3h-2a.308.308,0,0,0-.334.214c-.4.909-.8,1.8-1.216,2.7a.575.575,0,0,1-.681.347.526.526,0,0,1-.428-.481.863.863,0,0,1,.067-.361c1.349-2.979,2.7-5.945,4.061-8.925a.587.587,0,0,1,.534-.4.569.569,0,0,1,.534.4q2,4.429,4.035,8.871c.174.374.093.708-.2.842-.347.16-.641.027-.842-.387-.4-.868-.8-1.737-1.189-2.619a.284.284,0,0,0-.321-.2Zm.013-4.943c-.588,1.3-1.149,2.538-1.737,3.794h3.273c.174,0,.16-.067.107-.187a4.97,4.97,0,0,1-.214-.468C98.8,185.478,98.333,184.449,97.839,183.353Z"
        transform="translate(-57.401 -150.735)" fill="#ffffff" fill-rule="evenodd" />
      <path id="Path_667" data-name="Path 667"
        d="M176.3,191.564h-3.059a2.5,2.5,0,0,1-1.723-.655,2.017,2.017,0,0,1-.708-1.59c0-1.87.027-3.727-.013-5.6a2.266,2.266,0,0,1,2.138-2.285c1.6-.04,3.193-.013,4.8-.013a.482.482,0,0,1,.494.481.511.511,0,0,1-.428.615,1.411,1.411,0,0,1-.334.027h-4.168a1.453,1.453,0,0,0-.868.24,1.046,1.046,0,0,0-.494.935c.013,1.83,0,3.647,0,5.478a1.17,1.17,0,0,0,1.056,1.2c.147.013.281.027.427.027h6.025c.387,0,.588.12.655.374a.549.549,0,0,1-.561.748C178.463,191.564,177.381,191.564,176.3,191.564Z"
        transform="translate(-79.718 -150.742)" fill="#ffffff" fill-rule="evenodd" />
      <path id="Path_668" data-name="Path 668"
        d="M131.44,189.13c0-.561-.013-1.122,0-1.683a.786.786,0,0,0-.2-.561c-1.242-1.483-2.485-2.979-3.727-4.462a.571.571,0,0,1-.094-.708.558.558,0,0,1,.615-.254c.2.027.307.187.414.321,1.122,1.349,2.244,2.685,3.367,4.035.16.187.227.2.387,0,1.069-1.309,2.164-2.605,3.247-3.9.067-.067.12-.147.187-.214a.622.622,0,0,1,.855-.12.6.6,0,0,1,.013.842c-.574.695-1.149,1.376-1.71,2.057-.695.828-1.376,1.657-2.071,2.472a.585.585,0,0,0-.147.414v3.594c0,.361-.16.574-.468.615a.543.543,0,0,1-.668-.588C131.427,190.372,131.44,189.745,131.44,189.13Z"
        transform="translate(-67.225 -150.754)" fill="#ffffff" fill-rule="evenodd" />
      <path id="Path_669" data-name="Path 669"
        d="M149.6,181.445h4.021c.427,0,.628.187.628.561s-.2.561-.628.561c-1.069,0-2.138.013-3.193,0-.227,0-.281.067-.281.294.013,2.685,0,5.384,0,8.07,0,.468-.227.695-.655.641a.476.476,0,0,1-.454-.441,2.468,2.468,0,0,1-.013-.307v-7.936c0-.267-.08-.321-.334-.321-1.042.013-2.1.013-3.14,0-.414,0-.615-.187-.628-.534a.5.5,0,0,1,.574-.574C146.874,181.445,148.237,181.445,149.6,181.445Z"
        transform="translate(-72.281 -150.751)" fill="#ffffff" fill-rule="evenodd" />
      <path id="Path_670" data-name="Path 670"
        d="M111.475,185.753v-3.687c0-.4.16-.6.468-.641.428-.04.655.16.655.615V189a1.261,1.261,0,0,0,1.443,1.43h6.2a.54.54,0,0,1,.574.574.516.516,0,0,1-.561.548c-2.164,0-4.329.013-6.48,0a2.318,2.318,0,0,1-2.218-1.7,2.444,2.444,0,0,1-.053-.628C111.475,188.078,111.475,186.916,111.475,185.753Z"
        transform="translate(-62.666 -150.744)" fill="#ffffff" fill-rule="evenodd" />
      <path id="Path_671" data-name="Path 671"
        d="M163.235,186.508v-4.449a.543.543,0,0,1,.641-.615.481.481,0,0,1,.481.441.706.706,0,0,1,.013.174v8.9a.543.543,0,0,1-.655.615c-.307-.04-.468-.24-.468-.628V187.4C163.235,187.1,163.235,186.8,163.235,186.508Z"
        transform="translate(-77.545 -150.75)" fill="#ffffff" fill-rule="evenodd" />
      <path id="Path_672" data-name="Path 672"
        d="M101.787,149.322h.053a.029.029,0,0,1,.027.027A.191.191,0,0,0,101.787,149.322Z"
        transform="translate(-59.881 -141.517)" fill="#000000" fill-rule="evenodd" />
      <path id="Path_673" data-name="Path 673"
        d="M209.024,155.785a21.214,21.214,0,0,1-2.5.984c-.013-.04-.027-.066-.04-.106C207.335,156.37,208.186,156.078,209.024,155.785Z"
        transform="translate(-89.978 -143.375)" fill="#f6901e" fill-rule="evenodd" />
      <path id="Path_674" data-name="Path 674"
        d="M206.347,157.146a.37.37,0,0,0-.013-.12.348.348,0,0,1,.226-.066c.013.027.013.053.027.08h-.013v-.013c-.066,0-.106.013-.12.08C206.427,157.133,206.387,157.133,206.347,157.146Z"
        transform="translate(-89.935 -143.712)" fill="#f6901e" fill-rule="evenodd" />
      <path id="Path_675" data-name="Path 675"
        d="M206.7,157.041c-.013-.027-.013-.053-.027-.08.053-.027.106-.08.133-.013S206.763,157.041,206.7,157.041Z"
        transform="translate(-90.031 -143.7)" fill="#f6901e" fill-rule="evenodd" />
      <path id="Path_676" data-name="Path 676"
        d="M206.521,157.152a.09.09,0,0,1,.12-.08C206.627,157.138,206.561,157.125,206.521,157.152Z"
        transform="translate(-89.988 -143.744)" fill="#f6901e" fill-rule="evenodd" />
      <path id="Path_677" data-name="Path 677"
        d="M111.609,157.314c-.865-.186-1.716-.346-2.58-.559-2.354-.572-4.7-1.157-7.05-1.729-.865-.213-1.742-.426-2.607-.625a.282.282,0,0,1-.266-.066l-3.033-.718c-.785-.186-1.583-.372-2.368-.559-1.676-.386-3.339-.771-5.015-1.144a1.285,1.285,0,0,0-.226,0,2.674,2.674,0,0,0-.918-.239c-.785-.173-1.583-.332-2.368-.492-1.476-.319-2.966-.6-4.456-.865-1.21-.213-2.421-.412-3.645-.559-.891-.16-1.782-.239-2.674-.333a51.4,51.4,0,0,0-6.238-.253c-.293,0-.585.027-.878.027h-.306a3.432,3.432,0,0,0-.825.04c-.865.093-1.729.12-2.58.226-.6.08-1.21.106-1.809.186-.718.106-1.437.213-2.155.279-1.25.12-2.487.346-3.724.585a44.076,44.076,0,0,0-11.812,4.336c-.093.053-.186.08-.279.133l-.04-.04a37.174,37.174,0,0,1,4.988-2.5,50.058,50.058,0,0,1,10.588-3.1,2.527,2.527,0,0,0,.306-.067,4.406,4.406,0,0,0,.732-.106c.7-.093,1.4-.2,2.1-.293.745-.107,1.49-.186,2.248-.266.572-.053,1.157-.106,1.729-.146a1.861,1.861,0,0,0,.851-.106c.771-.027,1.543-.067,2.328-.08,2.128-.053,4.256-.067,6.385.027.359.013.718.027,1.077.053.479.027.958.066,1.437.08.652.027,1.3.12,1.955.16s1.3.093,1.955.173c.891.093,1.8.16,2.7.24.027.013.053.013.08.027L89,149.52a4.261,4.261,0,0,0,.825.133c.692.106,1.37.226,2.062.333.732.12,1.463.213,2.181.346.918.173,1.836.359,2.767.479.811.186,1.636.333,2.447.466a2.358,2.358,0,0,0,.745.186c1.21.266,2.434.492,3.658.745,1.264.266,2.514.559,3.764.851,1.038.239,2.075.492,3.126.732.585.133,1.157.306,1.756.4a17.349,17.349,0,0,0,1.822.452c.492.106.971.279,1.463.346.851.226,1.7.452,2.554.665,1.051.266,2.088.532,3.139.771.665.16,1.33.279,2,.426l1.809.319c.572.093,1.157.173,1.729.253.532.08,1.064.16,1.6.213.4.04.8.093,1.2.12.692.066,1.4.12,2.1.173.758.053,1.53.053,2.288.067l1.556.04h1.437a16,16,0,0,0,1.955-.04c.146,0,.293-.013.426-.013a3.888,3.888,0,0,0,.878-.04c.532-.027,1.077-.013,1.609-.067.931-.106,1.862-.16,2.78-.266.825-.093,1.663-.186,2.487-.306.8-.106,1.6-.266,2.381-.386.865-.133,1.716-.293,2.567-.479.7-.146,1.41-.306,2.115-.452,1.436-.346,2.873-.7,4.3-1.131.372-.106.745-.226,1.117-.333a.369.369,0,0,0,.013.12c-1.437.519-2.9.944-4.376,1.357-.532.146-1.077.293-1.609.452-.732.173-1.45.346-2.181.519-1.038.226-2.075.465-3.126.665-.9.173-1.822.319-2.74.466-.7.12-1.41.226-2.128.319-.638.093-1.29.173-1.942.239s-1.277.12-1.929.186c-.825.08-1.636.16-2.461.213-.519.04-1.051.053-1.583.08-1.077.04-2.168.066-3.246.106h-2.434c-.333,0-.652-.013-.984-.013a11.289,11.289,0,0,0-1.5-.04c-.133,0-.253-.013-.386-.013a4.338,4.338,0,0,0-.931-.04c-.559-.027-1.131-.027-1.689-.08-.306-.027-.625-.027-.931-.053-.732-.067-1.463-.146-2.195-.226-.6-.066-1.21-.106-1.809-.173-.665-.08-1.33-.186-1.982-.279l-1.875-.279C114.256,157.807,112.939,157.567,111.609,157.314Z"
        transform="translate(-43.2 -141.206)" fill="#f6901e" fill-rule="evenodd" />
      <path id="Path_678" data-name="Path 678"
        d="M43.631,157.767a.121.121,0,0,1-.106.053c-.013-.013-.013-.027-.027-.027.04-.027.067-.04.106-.067C43.617,157.74,43.617,157.753,43.631,157.767Z"
        transform="translate(-43.125 -143.933)" fill="#f6901e" fill-rule="evenodd" />
      <path id="Path_679" data-name="Path 679"
        d="M43.348,157.886c.013-.053.067-.053.106-.066.013.013.013.027.027.027-.027.053-.066.053-.12.053Z"
        transform="translate(-43.082 -143.96)" fill="#f6901e" fill-rule="evenodd" />
      <path id="Path_680" data-name="Path 680"
        d="M43.342,157.944c-.013.027-.04.053-.053.027s.013-.04.04-.04C43.329,157.917,43.342,157.944,43.342,157.944Z"
        transform="translate(-43.063 -143.991)" fill="#f6901e" fill-rule="evenodd" />
      <path id="Path_681" data-name="Path 681"
        d="M43.167,158.04v.013l-.013.013c-.027-.013-.027-.027,0-.027C43.154,158.027,43.154,158.027,43.167,158.04Z"
        transform="translate(-43.021 -144.02)" fill="#f6901e" fill-rule="evenodd" />
      <path id="Path_682" data-name="Path 682"
        d="M43.015,158.132c-.013,0-.013.013-.027.013a.013.013,0,0,1-.013-.013c.013,0,.013-.013.027-.013A.013.013,0,0,1,43.015,158.132Z"
        transform="translate(-42.975 -144.046)" fill="#f6901e" fill-rule="evenodd" />
      <path id="Path_683" data-name="Path 683"
        d="M176.547,161.919a16.065,16.065,0,0,1-1.964.04A19.271,19.271,0,0,1,176.547,161.919Z"
        transform="translate(-80.807 -145.137)" fill="#000000" fill-rule="evenodd" />
      <path id="Path_684" data-name="Path 684"
        d="M178.825,161.844a3.9,3.9,0,0,1-.882.04A3.871,3.871,0,0,1,178.825,161.844Z"
        transform="translate(-81.773 -145.115)" fill="#000000" fill-rule="evenodd" />
      <path id="Path_685" data-name="Path 685" d="M166.534,163.676a.523.523,0,0,1-.4.04,9.84,9.84,0,0,1-1.536-.04Z"
        transform="translate(-77.937 -145.643)" fill="#000000" fill-rule="evenodd" />
      <path id="Path_686" data-name="Path 686"
        d="M162.6,163.639a9.508,9.508,0,0,1-1.51-.04A11.338,11.338,0,0,1,162.6,163.639Z"
        transform="translate(-76.928 -145.62)" fill="#000000" fill-rule="evenodd" />
      <path id="Path_687" data-name="Path 687"
        d="M160.194,163.562a4.391,4.391,0,0,1-.935-.04A3.664,3.664,0,0,1,160.194,163.562Z"
        transform="translate(-76.402 -145.596)" fill="#000000" fill-rule="evenodd" />
      <path id="Path_688" data-name="Path 688"
        d="M76.054,149.558a3.413,3.413,0,0,1-.828.04A2.454,2.454,0,0,1,76.054,149.558Z"
        transform="translate(-52.246 -141.581)" fill="#000000" fill-rule="evenodd" />
    </g>
  </g>
</svg>